<svg width="377" height="30" viewBox="0 0 377 30" fill="none" xmlns="http://www.w3.org/2000/svg">
<path d="M18.7508 24.9L10.6008 16.75C9.63828 15.7875 9.63828 14.2125 10.6008 13.25L18.7508 5.09998" stroke="black" stroke-width="1.5" stroke-miterlimit="10" stroke-linecap="round" stroke-linejoin="round"/>
<circle cx="120.5" cy="15" r="10" fill="black"/>
<path d="M121.944 10.2V20H120.936V11.096H118.626V10.2H121.944Z" fill="white"/>
<circle opacity="0.3" cx="154.5" cy="15" r="10" fill="black"/>
<path d="M157.92 19.104V20H151.046V19.286L155.12 15.296C155.633 14.792 155.979 14.358 156.156 13.994C156.343 13.6207 156.436 13.2473 156.436 12.874C156.436 12.2953 156.235 11.8473 155.834 11.53C155.442 11.2033 154.877 11.04 154.14 11.04C152.992 11.04 152.101 11.404 151.466 12.132L150.752 11.516C151.135 11.068 151.62 10.7227 152.208 10.48C152.805 10.2373 153.477 10.116 154.224 10.116C155.223 10.116 156.011 10.354 156.59 10.83C157.178 11.2967 157.472 11.9407 157.472 12.762C157.472 13.266 157.36 13.7513 157.136 14.218C156.912 14.6847 156.487 15.2213 155.862 15.828L152.53 19.104H157.92Z" fill="black"/>
<circle opacity="0.3" cx="188.5" cy="15" r="10" fill="black"/>
<path d="M188.56 14.4C189.587 14.456 190.366 14.736 190.898 15.24C191.439 15.7347 191.71 16.3833 191.71 17.186C191.71 17.746 191.575 18.2453 191.304 18.684C191.033 19.1133 190.632 19.454 190.1 19.706C189.568 19.958 188.919 20.084 188.154 20.084C187.445 20.084 186.773 19.972 186.138 19.748C185.513 19.5147 185.009 19.2067 184.626 18.824L185.116 18.026C185.443 18.362 185.877 18.6373 186.418 18.852C186.959 19.0573 187.538 19.16 188.154 19.16C188.957 19.16 189.577 18.9873 190.016 18.642C190.455 18.2873 190.674 17.802 190.674 17.186C190.674 16.5793 190.455 16.1033 190.016 15.758C189.577 15.4127 188.915 15.24 188.028 15.24H187.328V14.498L190.044 11.096H185.032V10.2H191.332V10.914L188.56 14.4Z" fill="black"/>
<circle opacity="0.3" cx="222.5" cy="15" r="10" fill="black"/>
<path d="M226.558 17.424H224.598V20H223.59V17.424H218.06V16.696L223.254 10.2H224.374L219.362 16.528H223.618V14.26H224.598V16.528H226.558V17.424Z" fill="black"/>
<circle opacity="0.3" cx="256.5" cy="15" r="10" fill="black"/>
<path d="M255.804 14.218C257.223 14.218 258.254 14.4747 258.898 14.988C259.551 15.492 259.878 16.2013 259.878 17.116C259.878 17.6853 259.743 18.194 259.472 18.642C259.211 19.09 258.814 19.4447 258.282 19.706C257.75 19.958 257.097 20.084 256.322 20.084C255.622 20.084 254.955 19.972 254.32 19.748C253.695 19.5147 253.191 19.2067 252.808 18.824L253.298 18.026C253.625 18.362 254.054 18.6373 254.586 18.852C255.118 19.0573 255.692 19.16 256.308 19.16C257.12 19.16 257.745 18.978 258.184 18.614C258.632 18.25 258.856 17.7647 258.856 17.158C258.856 16.486 258.604 15.9773 258.1 15.632C257.605 15.2867 256.765 15.114 255.58 15.114H253.494L253.998 10.2H259.36V11.096H254.88L254.544 14.218H255.804Z" fill="black"/>
<path d="M358.137 24.9L366.287 16.75C367.249 15.7875 367.249 14.2125 366.287 13.25L358.137 5.09998" stroke="black" stroke-width="1.5" stroke-miterlimit="10" stroke-linecap="round" stroke-linejoin="round"/>
</svg>
