<svg width="78" height="64" viewBox="0 0 78 64" fill="none" xmlns="http://www.w3.org/2000/svg">
<path fill-rule="evenodd" clip-rule="evenodd" d="M30.6814 1.96534C30.3214 6.27012 29.6015 10.1745 28.7507 14.4125C28.1617 17.3825 25.871 22.2212 23.8421 24.0566C21.0279 26.5928 11.2107 28.8619 7.28389 28.962C5.15684 29.0288 3.71698 27.4604 1.78628 29.6962C1.52449 31.5983 1.5245 32.8997 1.06637 35.0354C0.739132 36.5705 -0.406216 38.3725 0.150088 39.8074C1.85172 41.6094 3.7497 39.8742 5.54951 39.3069C7.1857 38.7729 9.60724 37.9387 11.178 37.5382C14.4176 36.704 21.2569 36.2368 23.8748 38.5393C27.3108 41.5093 26.9182 45.8141 26.8527 49.9854L25.7074 63.6005C27.5399 64.7685 29.7651 63.0332 31.8921 62.7329C32.0885 62.6995 38.6333 63.5004 36.6699 59.9965C36.1463 59.0621 36.1135 60.0299 35.8844 58.6283C35.5899 56.893 37.1607 47.883 37.5534 46.1811C38.7642 40.9753 46.7815 37.6049 51.1665 35.9364C52.41 35.4692 57.024 35.1355 58.4638 35.1689C59.8055 37.7384 60.0674 40.8752 63.8306 41.1088C67.2339 41.3091 69.9826 40.7418 72.4042 38.3725C73.4841 37.338 73.615 36.2367 74.7276 35.002C77.2146 32.2657 77.3127 29.3291 77.7709 26.6594C77.9018 25.9253 78 22.5216 78 21.6206C77.6073 20.1523 73.1242 15.6472 68.3465 17.9164C66.8085 18.6172 65.1068 18.1834 62.4234 21.9209C61.2127 23.5894 62.2925 23.6562 59.9364 24.5572C57.9403 25.2913 53.359 25.5583 51.1665 25.5583C47.1415 25.5583 47.2396 24.724 43.9673 23.2223C40.6622 21.7207 40.7603 20.3858 40.0404 17.1823C39.255 13.6116 40.3349 7.57163 41.6439 4.20122C42.1674 2.8664 43.0837 1.69842 42.5928 0.263495C40.8912 -0.570765 38.666 0.830743 36.8007 0.964224C31.794 1.19782 35.4263 0.59715 30.6814 1.96534Z" fill="white"/>
</svg>
