<svg width="175" height="26" viewBox="0 0 175 26" fill="none" xmlns="http://www.w3.org/2000/svg">
<g clip-path="url(#clip0_37_436)">
<path fill-rule="evenodd" clip-rule="evenodd" d="M21.9086 10.9752C21.8445 11.4605 22.6773 12.1615 22.2289 13.0781C22.1008 13.2938 21.268 13.9948 21.268 14.2644H19.7305C17.1681 14.4801 13.1323 19.8723 11.659 21.9213C10.5699 23.4311 11.0184 24.2399 10.1856 25.5341C10.0574 25.8037 8.32782 25.8576 8.1997 25.6419L2.04993 17.5536C1.2812 16.2595 0.768722 15.4507 0 14.6958C0.896843 13.0242 3.13895 11.4605 4.74045 7.52418C5.06075 6.71535 5.18888 6.49966 5.6373 5.74476C6.34196 4.72025 6.02166 4.88201 6.40602 3.8575C6.98256 2.34769 6.9185 3.69573 7.68722 2.29377L8.77625 0.352582C11.5949 0.244739 11.0824 0.8918 12.1074 2.83298L17.04 8.98007C18.065 10.0585 18.3853 11.083 20.4993 11.2448C20.4352 11.2448 21.9086 10.9752 21.9086 10.9752Z" fill="black"/>
<path fill-rule="evenodd" clip-rule="evenodd" d="M71.4398 9.5208C70.3507 9.84433 68.9414 10.3296 67.5961 10.3296C67.5961 10.3835 67.6602 10.4375 67.7243 10.5453C68.3008 11.1924 70.671 13.0257 70.9913 13.3492C71.0554 13.4032 71.3757 13.2953 71.4398 13.2953C71.4398 13.3492 71.7601 13.5649 71.8882 13.7267L70.671 15.4522C69.9664 16.9081 69.518 18.5257 68.3008 19.4963C67.3399 20.2512 66.6993 20.9522 65.8665 21.4375C65.354 21.7071 63.4322 22.6777 62.8557 22.8395C60.3573 23.6483 56.9622 22.6238 55.4888 21.3836C52.0936 18.4179 52.1576 16.7463 52.542 13.2953C52.542 13.1875 52.6061 13.1336 52.6061 13.0257C53.5029 9.62864 55.4247 4.29039 60.037 3.3198C62.2151 2.8345 67.1477 2.78058 68.557 3.85901C70.7351 5.58451 70.9273 8.44236 71.4398 9.5208Z" fill="black"/>
<path fill-rule="evenodd" clip-rule="evenodd" d="M125.032 13.0385C123.623 13.8473 118.306 20.4258 117.601 21.5042C115.743 24.1464 117.409 24.5239 116.384 25.3866C114.398 27.0582 113.181 23.3376 111.067 20.6415C109.145 18.5925 107.223 16.166 105.365 14.2248C105.045 13.9013 102.675 12.1218 101.906 11.7444C101.842 11.6905 101.97 11.313 101.97 11.2052C102.226 11.0973 105.878 10.3963 105.878 10.3963C106.134 10.3424 106.39 10.2885 106.647 10.1267C107.8 9.5336 108.761 8.07771 109.529 7.21496C110.106 6.51398 110.234 6.5679 110.746 5.97476L115.359 0.366895L117.024 0.312973C118.049 1.44533 117.473 2.52377 118.306 3.92573C118.882 4.8424 119.202 6.19045 119.907 6.89143L122.149 8.99438C124.263 10.3963 124.007 10.2346 125.352 10.666C125.737 11.6365 125.737 10.666 125.032 13.0385Z" fill="black"/>
<path fill-rule="evenodd" clip-rule="evenodd" d="M174.591 8.83005C173.374 10.3938 171.901 10.6095 172.541 14.2762C172.606 14.4918 173.31 15.9477 173.823 16.9722C173.759 16.9183 173.759 16.8644 173.695 16.7566C172.67 17.5115 172.862 17.9968 172.029 19.183C171.388 20.0997 170.94 20.4772 170.043 21.2321C166.007 24.4674 159.986 23.9821 157.487 21.2321C155.694 19.237 155.245 14.5458 155.886 12.0654C156.719 9.63888 158.064 4.13886 162.932 3.06042C165.687 2.41336 168.634 2.46728 171.068 3.4918C173.31 4.35455 173.887 8.02123 174.591 8.83005Z" fill="black"/>
</g>
<defs>
<clipPath id="clip0_37_436">
<rect width="174.591" height="25.4903" fill="white" transform="translate(0 0.312973)"/>
</clipPath>
</defs>
</svg>
