<svg width="45" height="46" viewBox="0 0 45 46" fill="none" xmlns="http://www.w3.org/2000/svg">
<g clip-path="url(#clip0_26_1223)">
<path fill-rule="evenodd" clip-rule="evenodd" d="M42.6554 28.1584C40.9615 31.2874 39.8487 34.782 37.0009 36.8282C34.7532 38.4189 33.2447 39.9093 31.3052 40.9205C30.1132 41.4795 25.645 43.4881 24.311 43.8091C18.5252 45.4351 10.7697 43.0255 7.44427 40.2493C-0.213258 33.6175 0.0184359 29.9851 1.07649 22.4995C1.08193 22.2649 1.23196 22.151 1.23741 21.9165C3.47119 14.5755 8.15988 3.06695 18.815 1.20201C23.8479 0.2627 35.1932 0.408674 38.3795 2.82956C43.844 7.12594 46.6335 23.0744 42.6554 28.1584Z" fill="#D791BF"/>
<path d="M35.1071 14.9596L27.4453 22.572L35.1071 30.1845C35.2456 29.895 35.3296 29.575 35.3296 29.2332V15.9109C35.3296 15.5691 35.2456 15.2491 35.1071 14.9596Z" fill="white"/>
<path d="M33.1096 13.6901H12.2872C11.9454 13.6901 11.6254 13.7741 11.3359 13.9126L21.1285 23.6558C21.9944 24.5217 23.4024 24.5217 24.2683 23.6558L34.0608 13.9126C33.7713 13.7741 33.4514 13.6901 33.1096 13.6901Z" fill="white"/>
<path d="M10.2889 14.9596C10.1504 15.2491 10.0664 15.5691 10.0664 15.9109V29.2332C10.0664 29.575 10.1504 29.8951 10.2889 30.1845L17.9507 22.572L10.2889 14.9596Z" fill="white"/>
<path d="M26.399 23.6178L25.3149 24.702C23.8721 26.1447 21.5246 26.1447 20.0819 24.702L18.9977 23.6178L11.3359 31.2302C11.6254 31.3688 11.9454 31.4528 12.2872 31.4528H33.1096C33.4514 31.4528 33.7713 31.3688 34.0608 31.2302L26.399 23.6178Z" fill="white"/>
</g>
<defs>
<clipPath id="clip0_26_1223">
<rect width="45" height="45" fill="white" transform="translate(0 0.0718994)"/>
</clipPath>
</defs>
</svg>
