<svg width="45" height="41" viewBox="0 0 45 41" fill="none" xmlns="http://www.w3.org/2000/svg">
<path fill-rule="evenodd" clip-rule="evenodd" d="M13.3722 3.37478e-05C16.7481 2.62768 17.2137 5.80853 25.1296 4.42556C25.5953 4.28726 28.7383 2.76599 30.9501 1.65961C30.8337 1.79791 30.7173 1.7979 30.4845 1.9362C32.1142 4.14896 33.1619 3.73406 35.7229 5.53193C37.7019 6.9149 38.5168 7.88298 40.1465 9.81914C47.1311 18.5319 46.0834 31.5318 40.1465 36.9254C35.8393 40.7978 25.7117 41.7658 20.3568 40.3829C15.1184 38.585 3.24457 35.6808 0.916367 25.1702C-0.480552 19.2234 -0.364143 12.8617 1.84764 7.60639C3.7102 2.76598 11.6261 1.5213 13.3722 3.37478e-05Z" fill="#FFA0EB"/>
<path d="M20.2469 23.5204L18.2839 20.7254C18.0412 20.7428 17.8505 20.7514 17.7119 20.7514H15.4629V23.5204H14.1629V14.4204H17.7119C18.8905 14.4204 19.8179 14.7021 20.4939 15.2654C21.1699 15.8288 21.5079 16.6044 21.5079 17.5924C21.5079 18.2944 21.3345 18.8924 20.9879 19.3864C20.6412 19.8804 20.1472 20.2401 19.5059 20.4654L21.6639 23.5204H20.2469ZM17.6729 19.6464C18.4962 19.6464 19.1245 19.4688 19.5579 19.1134C19.9912 18.7581 20.2079 18.2511 20.2079 17.5924C20.2079 16.9338 19.9912 16.4311 19.5579 16.0844C19.1245 15.7291 18.4962 15.5514 17.6729 15.5514H15.4629V19.6464H17.6729ZM30.1082 16.6304V23.5204H28.9252V22.4804C28.6738 22.8358 28.3402 23.1131 27.9242 23.3124C27.5168 23.5031 27.0705 23.5984 26.5852 23.5984C25.6665 23.5984 24.9428 23.3471 24.4142 22.8444C23.8855 22.3331 23.6212 21.5834 23.6212 20.5954V16.6304H24.8692V20.4524C24.8692 21.1198 25.0295 21.6268 25.3502 21.9734C25.6708 22.3114 26.1302 22.4804 26.7282 22.4804C27.3868 22.4804 27.9068 22.2811 28.2882 21.8824C28.6695 21.4838 28.8602 20.9204 28.8602 20.1924V16.6304H30.1082Z" fill="black"/>
</svg>
