<svg width="45" height="46" viewBox="0 0 45 46" fill="none" xmlns="http://www.w3.org/2000/svg">
<g clip-path="url(#clip0_26_1216)">
<path fill-rule="evenodd" clip-rule="evenodd" d="M42.4674 13.684C44.6655 19.2968 46.0095 24.4881 40.7716 30.7993C40.6303 30.686 40.6303 30.5726 40.489 30.346C38.2279 31.9328 38.6519 32.9529 36.8148 35.4465C35.4017 37.3734 34.4125 38.1669 32.434 39.7537C23.5312 46.5545 10.2476 45.5344 4.73638 39.7537C0.77957 35.5599 -0.209632 25.6987 1.20351 20.4848C3.0406 15.3842 6.00821 3.82288 16.7481 1.55595C22.8246 0.195792 29.3251 0.309137 34.6951 2.46272C39.6411 4.27626 40.9129 11.9838 42.4674 13.684Z" fill="#23B6EB"/>
<path fill-rule="evenodd" clip-rule="evenodd" d="M10.9372 21.883C16.6557 19.3916 20.469 17.749 22.3769 16.9555C27.8245 14.6896 28.9565 14.296 29.6943 14.283C29.8566 14.2801 30.2194 14.3204 30.4544 14.5111C30.8031 14.794 30.8051 15.4081 30.7664 15.8145C30.4711 18.9163 29.1938 26.4435 28.5439 29.9176C28.2689 31.3876 27.7275 31.8805 27.2033 31.9287C26.0642 32.0335 25.1992 31.1759 24.0958 30.4527C22.3694 29.3209 21.394 28.6164 19.7181 27.5121C17.7814 26.2358 19.0369 25.5344 20.1406 24.388C20.4295 24.088 25.4486 19.5227 25.5458 19.1085C25.5579 19.0567 25.5692 18.8636 25.4545 18.7617C25.3398 18.6598 25.1705 18.6946 25.0484 18.7223C24.8752 18.7616 22.1171 20.5846 16.7741 24.1913C15.9913 24.7289 15.2822 24.9908 14.6469 24.9771C13.9464 24.962 12.5992 24.581 11.5976 24.2555C10.3691 23.8562 9.39277 23.645 9.47782 22.9668C9.52211 22.6135 10.0085 22.2523 10.9372 21.883Z" fill="white"/>
</g>
<defs>
<clipPath id="clip0_26_1216">
<rect width="45" height="45" fill="white" transform="translate(0 0.0718994)"/>
</clipPath>
</defs>
</svg>
