<svg width="45" height="46" viewBox="0 0 45 46" fill="none" xmlns="http://www.w3.org/2000/svg">
<g clip-path="url(#clip0_26_1220)">
<path fill-rule="evenodd" clip-rule="evenodd" d="M43.0344 26.8402C44.209 21.0916 44.1747 19.5671 44.0907 15.8361C43.8266 12.6265 44.2228 11.4802 42.2422 8.61456C39.3373 4.37336 36.3003 -1.01411 24.5487 1.1638C20.1914 1.96619 16.7583 4.48799 13.0612 6.89515C9.89223 9.07307 8.30774 12.6265 5.13877 15.8361C2.63 19.1602 -0.406944 19.6187 0.913462 27.4134C1.0455 27.8719 2.49795 30.9668 3.55427 33.1447C5.40284 36.6982 7.11937 39.9077 10.8165 41.971C19.9273 47.1292 29.5663 42.4295 36.0363 36.9274C39.3373 34.1764 41.1858 27.6426 43.0344 26.8402Z" fill="#2787F5"/>
<path fill-rule="evenodd" clip-rule="evenodd" d="M13.7198 14.8745H10.9992C10.2219 14.8745 10.0664 15.2413 10.0664 15.6457C10.0664 16.368 10.9888 19.9501 14.361 24.6878C16.6093 27.9233 19.7767 29.6771 22.659 29.6771C24.3884 29.6771 24.6023 29.2876 24.6023 28.6166V26.1712C24.6023 25.3921 24.7662 25.2366 25.3137 25.2366C25.7173 25.2366 26.409 25.4389 28.0231 26.9989C29.8678 28.8477 30.1719 29.6771 31.2094 29.6771H33.9301C34.7074 29.6771 35.0961 29.2876 34.8719 28.5189C34.6265 27.7527 33.7458 26.641 32.5771 25.3234C31.943 24.5723 30.9918 23.7634 30.7036 23.3589C30.3001 22.839 30.4154 22.6078 30.7036 22.1457C30.7036 22.1457 34.0183 17.4657 34.3641 15.8769C34.537 15.2991 34.3641 14.8745 33.5414 14.8745H30.8207C30.129 14.8745 29.8101 15.2413 29.6371 15.6457C29.6371 15.6457 28.2536 19.0256 26.2937 21.2212C25.6595 21.8567 25.3713 22.059 25.0254 22.059C24.8525 22.059 24.6022 21.8567 24.6022 21.2791V15.8769C24.6022 15.1835 24.4015 14.8745 23.8249 14.8745H19.5496C19.1174 14.8745 18.8573 15.1963 18.8573 15.5013C18.8573 16.1585 19.8373 16.3101 19.9383 18.159V22.1745C19.9383 23.0549 19.7796 23.2145 19.4338 23.2145C18.5115 23.2145 16.2679 19.8194 14.9373 15.9345C14.6767 15.1795 14.4152 14.8745 13.7198 14.8745Z" fill="white"/>
</g>
<defs>
<clipPath id="clip0_26_1220">
<rect width="45" height="45" fill="white" transform="translate(0 0.0718994)"/>
</clipPath>
</defs>
</svg>
