<svg width="226" height="66" viewBox="0 0 226 66" fill="none" xmlns="http://www.w3.org/2000/svg">
<path fill-rule="evenodd" clip-rule="evenodd" d="M115.045 0.946267C108.192 1.8271 102.124 2.22115 95.1689 2.34864C80.7347 3.03244 56.639 8.21309 49.4219 10.0095C39.4402 12.4897 29.895 14.8889 21.412 18.2615C13.9185 21.1937 5.77014 27.8695 3.10738 34.1975C0.415526 39.5984 -0.835825 39.4941 0.604682 46.6566C2.65631 56.8788 23.8856 63.6589 36.4864 64.1805C49.4655 64.7136 62.0372 63.3692 74.0415 64.1457C84.8671 64.8527 100.305 65.2931 111.305 64.957C124.052 64.1573 133.466 65.4438 149.428 64.7252C164.91 64.0298 167.834 62.5347 181.788 60.0892C192.163 58.2812 213.13 50.4233 218.325 43.8171C225.964 33.7455 231.319 20.7765 217.219 10.8904C213.669 8.39854 210.453 6.84549 206.132 4.8984C189.471 -2.57705 171.501 0.957857 153.589 0.598572C142.837 0.389954 124.896 -0.317026 115.045 0.946267Z" fill="#FFFF6E"/>
</svg>
